<?xml version="1.0" encoding="UTF-8"?>
<level>
  <owner>stolbitsa</owner>
  <repo>gorodok-go-1</repo>
  <version>v1.0.1</version>
  <next number="1" owner="stolbitsa" repo="merry-christmas-kids-5"/>
  <readme>
    <ru>4e344558ad6abd0efc68f8c46b53dc37f137e7f993c55a04d0bac4c9ec45137f</ru>
    <en>5b8ee33c696d06878505f7cbbc271830ed42bbc4a9ffbb94832fe7b16be85134</en>
  </readme>
  <license>b1b99f5538d1fd3702219bff50c665196dfa42f6ee755c37fe41a6178d6bc6e5</license>
  <exercise number="1">
    <scale>minor</scale>
    <bpm>78</bpm>
    <lowestNote>5</lowestNote>
    <tonalities>3</tonalities>
    <video name="1.mp4" size="2733900" type="video/mp4" volume="1">6b2ebf9e54c6d1b83757d96917021ab413df2ea34029174c273d0be28612a8a1</video>
    <notes>
      <note number="1" values="5" ticks="144" durationTicks="24" ppq="96" velocity="0.604"/>
      <note number="2" values="18" ticks="168" durationTicks="24" ppq="96" velocity="0.639"/>
      <note number="3" values="28" ticks="192" durationTicks="48" ppq="96" velocity="0.719"/>
      <note number="4" values="18" ticks="241" durationTicks="46" ppq="96" velocity="0.719"/>
      <note number="5" values="28" ticks="288" durationTicks="41" ppq="96" velocity="0.719"/>
      <note number="6" values="18" ticks="328" durationTicks="43" ppq="96" velocity="0.719"/>
      <note number="7" values="28" ticks="376" durationTicks="49" ppq="96" velocity="0.719"/>
      <note number="8" values="18" ticks="422" durationTicks="45" ppq="96" velocity="0.719"/>
    </notes>
  </exercise>
  <exercise number="2">
    <scale>minor</scale>
    <bpm>78</bpm>
    <lowestNote>5</lowestNote>
    <tonalities>3</tonalities>
    <video name="2.mp4" size="2803982" type="video/mp4" volume="1">e1f4a41429c07ca7b380121902dabc126fe34f56d7ee0103186bd4de6b156b02</video>
    <notes>
      <note number="1" values="5" ticks="96" durationTicks="32" ppq="96" velocity="0.598"/>
      <note number="2" values="18" ticks="132" durationTicks="33" ppq="96" velocity="0.638"/>
      <note number="3" values="28" ticks="173" durationTicks="38" ppq="96" velocity="0.717"/>
      <note number="4" values="18" ticks="224" durationTicks="39" ppq="96" velocity="0.717"/>
      <note number="5" values="28" ticks="264" durationTicks="41" ppq="96" velocity="0.717"/>
      <note number="6" values="38" ticks="301" durationTicks="36" ppq="96" velocity="0.717"/>
      <note number="7" values="28" ticks="333" durationTicks="49" ppq="96" velocity="0.717"/>
      <note number="8" values="18" ticks="380" durationTicks="45" ppq="96" velocity="0.717"/>
    </notes>
  </exercise>
  <exercise number="3">
    <scale>minor</scale>
    <bpm>78</bpm>
    <lowestNote>5</lowestNote>
    <tonalities>3</tonalities>
    <video name="3.mp4" size="2840867" type="video/mp4" volume="1">0b4bbddc95fe22e5343dd30266aea51615be1c048288cacd5243ce584aee06fc</video>
    <notes>
      <note number="1" values="5" ticks="142" durationTicks="24" ppq="96" velocity="0.843"/>
      <note number="2" values="18" ticks="166" durationTicks="24" ppq="96" velocity="0.739"/>
      <note number="3" values="28" ticks="190" durationTicks="48" ppq="96" velocity="0.719"/>
      <note number="4" values="18" ticks="239" durationTicks="46" ppq="96" velocity="0.719"/>
      <note number="5" values="28" ticks="286" durationTicks="41" ppq="96" velocity="0.719"/>
      <note number="6" values="18" ticks="335" durationTicks="43" ppq="96" velocity="0.719"/>
      <note number="7" values="28" ticks="383" durationTicks="49" ppq="96" velocity="0.719"/>
      <note number="8" values="18" ticks="430" durationTicks="45" ppq="96" velocity="0.719"/>
    </notes>
  </exercise>
  <exercise number="4">
    <scale>minor</scale>
    <bpm>78</bpm>
    <lowestNote>5</lowestNote>
    <tonalities>3</tonalities>
    <video name="4.mp4" size="2407124" type="video/mp4" volume="1">e44c7fd5434afcea18eb2c65a5de4cb5211cd821ecd644d9ce48238007eef7fd</video>
    <notes>
      <note number="1" values="5" ticks="142" durationTicks="24" ppq="96" velocity="0.843"/>
      <note number="2" values="18" ticks="166" durationTicks="24" ppq="96" velocity="0.739"/>
      <note number="3" values="28" ticks="190" durationTicks="48" ppq="96" velocity="0.719"/>
      <note number="4" values="18" ticks="239" durationTicks="46" ppq="96" velocity="0.719"/>
      <note number="5" values="28" ticks="286" durationTicks="41" ppq="96" velocity="0.719"/>
      <note number="6" values="18" ticks="335" durationTicks="43" ppq="96" velocity="0.719"/>
      <note number="7" values="28" ticks="383" durationTicks="49" ppq="96" velocity="0.719"/>
      <note number="8" values="18" ticks="430" durationTicks="45" ppq="96" velocity="0.719"/>
    </notes>
  </exercise>
  <exercise number="5">
    <scale>minor</scale>
    <bpm>78</bpm>
    <lowestNote>5</lowestNote>
    <tonalities>3</tonalities>
    <video name="5.mp4" size="2530972" type="video/mp4" volume="1">d8a69d3d138f10b7a29badf3607892d18ad5654e36bb0f386c1593735af12661</video>
    <notes>
      <note number="1" values="5" ticks="142" durationTicks="24" ppq="96" velocity="0.843"/>
      <note number="2" values="18" ticks="166" durationTicks="24" ppq="96" velocity="0.739"/>
      <note number="3" values="28" ticks="190" durationTicks="48" ppq="96" velocity="0.719"/>
      <note number="4" values="18" ticks="239" durationTicks="46" ppq="96" velocity="0.719"/>
      <note number="5" values="28" ticks="286" durationTicks="41" ppq="96" velocity="0.719"/>
      <note number="6" values="18" ticks="335" durationTicks="43" ppq="96" velocity="0.719"/>
      <note number="7" values="28" ticks="383" durationTicks="49" ppq="96" velocity="0.719"/>
      <note number="8" values="18" ticks="430" durationTicks="45" ppq="96" velocity="0.719"/>
    </notes>
  </exercise>
  <exercise number="6">
    <scale>minor</scale>
    <bpm>78</bpm>
    <lowestNote>5</lowestNote>
    <tonalities>3</tonalities>
    <video name="6.mp4" size="2903433" type="video/mp4" volume="1">7434cb533f130a551fada91a5ee1520a0e25ff2fdf38eb57aaeff5517a239dd0</video>
    <notes>
      <note number="1" values="5" ticks="142" durationTicks="24" ppq="96" velocity="0.843"/>
      <note number="2" values="18" ticks="166" durationTicks="24" ppq="96" velocity="0.739"/>
      <note number="3" values="28" ticks="190" durationTicks="48" ppq="96" velocity="0.719"/>
      <note number="4" values="18" ticks="239" durationTicks="46" ppq="96" velocity="0.719"/>
      <note number="5" values="28" ticks="286" durationTicks="41" ppq="96" velocity="0.719"/>
      <note number="6" values="18" ticks="335" durationTicks="43" ppq="96" velocity="0.719"/>
      <note number="7" values="28" ticks="383" durationTicks="49" ppq="96" velocity="0.719"/>
      <note number="8" values="18" ticks="430" durationTicks="45" ppq="96" velocity="0.719"/>
    </notes>
  </exercise>
  <exercise number="7">
    <scale>minor</scale>
    <bpm>78</bpm>
    <lowestNote>5</lowestNote>
    <tonalities>3</tonalities>
    <video name="7.mp4" size="2326916" type="video/mp4" volume="1">d4ed78cebb80ed1f56e18553c2cf16f513171f7128ecba41b787751b3bf48941</video>
    <notes>
      <note number="1" values="5" ticks="142" durationTicks="24" ppq="96" velocity="0.843"/>
      <note number="2" values="18" ticks="166" durationTicks="24" ppq="96" velocity="0.739"/>
      <note number="3" values="28" ticks="190" durationTicks="48" ppq="96" velocity="0.719"/>
      <note number="4" values="18" ticks="239" durationTicks="46" ppq="96" velocity="0.719"/>
      <note number="5" values="28" ticks="286" durationTicks="41" ppq="96" velocity="0.719"/>
      <note number="6" values="18" ticks="335" durationTicks="43" ppq="96" velocity="0.719"/>
      <note number="7" values="28" ticks="383" durationTicks="49" ppq="96" velocity="0.719"/>
      <note number="8" values="18" ticks="430" durationTicks="45" ppq="96" velocity="0.719"/>
    </notes>
  </exercise>
  <exercise number="8">
    <scale>minor</scale>
    <bpm>78</bpm>
    <lowestNote>5</lowestNote>
    <tonalities>3</tonalities>
    <video name="8.mp4" size="2799089" type="video/mp4" volume="1">78883734593146dd995b4210236dd53e373697b6b8cacd8bff951cb6e543dd40</video>
    <notes>
      <note number="1" values="5" ticks="142" durationTicks="24" ppq="96" velocity="0.843"/>
      <note number="2" values="18" ticks="166" durationTicks="24" ppq="96" velocity="0.739"/>
      <note number="3" values="28" ticks="190" durationTicks="48" ppq="96" velocity="0.719"/>
      <note number="4" values="18" ticks="239" durationTicks="46" ppq="96" velocity="0.719"/>
      <note number="5" values="28" ticks="286" durationTicks="41" ppq="96" velocity="0.719"/>
      <note number="6" values="18" ticks="335" durationTicks="43" ppq="96" velocity="0.719"/>
      <note number="7" values="28" ticks="383" durationTicks="49" ppq="96" velocity="0.719"/>
      <note number="8" values="18" ticks="430" durationTicks="45" ppq="96" velocity="0.719"/>
    </notes>
  </exercise>
  <exercise number="9">
    <scale>minor</scale>
    <bpm>78</bpm>
    <lowestNote>5</lowestNote>
    <tonalities>3</tonalities>
    <video name="9.mp4" size="2754430" type="video/mp4" volume="1">9f29b5ff48e543e127db0cfae91d15844cacbef282ea54b35591cdfe5faaa42c</video>
    <notes>
      <note number="1" values="5" ticks="142" durationTicks="24" ppq="96" velocity="0.843"/>
      <note number="2" values="18" ticks="166" durationTicks="24" ppq="96" velocity="0.739"/>
      <note number="3" values="28" ticks="190" durationTicks="48" ppq="96" velocity="0.719"/>
      <note number="4" values="18" ticks="239" durationTicks="46" ppq="96" velocity="0.719"/>
      <note number="5" values="28" ticks="286" durationTicks="41" ppq="96" velocity="0.719"/>
      <note number="6" values="18" ticks="335" durationTicks="43" ppq="96" velocity="0.719"/>
      <note number="7" values="28" ticks="383" durationTicks="49" ppq="96" velocity="0.719"/>
      <note number="8" values="18" ticks="430" durationTicks="45" ppq="96" velocity="0.719"/>
    </notes>
  </exercise>
  <exercise number="10">
    <scale>minor</scale>
    <bpm>78</bpm>
    <lowestNote>5</lowestNote>
    <tonalities>3</tonalities>
    <video name="10.mp4" size="2748167" type="video/mp4" volume="1">1e41c2ccc845b063d9823c0a0e8489ae4a6d73cf92c0a6827953285cd3efa5cd</video>
    <notes>
      <note number="1" values="5" ticks="142" durationTicks="24" ppq="96" velocity="0.843"/>
      <note number="2" values="18" ticks="166" durationTicks="24" ppq="96" velocity="0.739"/>
      <note number="3" values="28" ticks="190" durationTicks="48" ppq="96" velocity="0.719"/>
      <note number="4" values="18" ticks="239" durationTicks="46" ppq="96" velocity="0.719"/>
      <note number="5" values="28" ticks="286" durationTicks="41" ppq="96" velocity="0.719"/>
      <note number="6" values="18" ticks="335" durationTicks="43" ppq="96" velocity="0.719"/>
      <note number="7" values="28" ticks="383" durationTicks="49" ppq="96" velocity="0.719"/>
      <note number="8" values="18" ticks="430" durationTicks="45" ppq="96" velocity="0.719"/>
    </notes>
  </exercise>
  <exercise number="11">
    <scale>minor</scale>
    <bpm>78</bpm>
    <lowestNote>5</lowestNote>
    <tonalities>3</tonalities>
    <video name="11.mp4" size="2747612" type="video/mp4" volume="1">d7a375b3d9cc80e89c4ea72d88fcbb69a65fbf7353a05c1692dd8cfc931d58c0</video>
    <notes>
      <note number="1" values="5" ticks="142" durationTicks="24" ppq="96" velocity="0.843"/>
      <note number="2" values="18" ticks="166" durationTicks="24" ppq="96" velocity="0.739"/>
      <note number="3" values="28" ticks="190" durationTicks="48" ppq="96" velocity="0.719"/>
      <note number="4" values="18" ticks="239" durationTicks="46" ppq="96" velocity="0.719"/>
      <note number="5" values="28" ticks="286" durationTicks="41" ppq="96" velocity="0.719"/>
      <note number="6" values="18" ticks="335" durationTicks="43" ppq="96" velocity="0.719"/>
      <note number="7" values="28" ticks="383" durationTicks="49" ppq="96" velocity="0.719"/>
      <note number="8" values="18" ticks="430" durationTicks="45" ppq="96" velocity="0.719"/>
    </notes>
  </exercise>
  <exercise number="12">
    <scale>minor</scale>
    <bpm>78</bpm>
    <lowestNote>5</lowestNote>
    <tonalities>3</tonalities>
    <video name="12.mp4" size="2803137" type="video/mp4" volume="1">d9361f6250446d8f6ceef4eb2024adff5e2fe4be3825cc776cc6fe4154e71149</video>
    <notes>
      <note number="1" values="5" ticks="142" durationTicks="24" ppq="96" velocity="0.843"/>
      <note number="2" values="18" ticks="166" durationTicks="24" ppq="96" velocity="0.739"/>
      <note number="3" values="28" ticks="190" durationTicks="48" ppq="96" velocity="0.719"/>
      <note number="4" values="18" ticks="239" durationTicks="46" ppq="96" velocity="0.719"/>
      <note number="5" values="28" ticks="286" durationTicks="41" ppq="96" velocity="0.719"/>
      <note number="6" values="18" ticks="335" durationTicks="43" ppq="96" velocity="0.719"/>
      <note number="7" values="28" ticks="383" durationTicks="49" ppq="96" velocity="0.719"/>
      <note number="8" values="18" ticks="430" durationTicks="45" ppq="96" velocity="0.719"/>
    </notes>
  </exercise>
</level>
